<mxfile host="app.diagrams.net" agent="Mozilla/5.0 (Windows NT 10.0; Win64; x64) AppleWebKit/537.36 (KHTML, like Gecko) Chrome/140.0.0.0 Safari/537.36 Edg/140.0.0.0" version="28.2.5">
  <diagram name="Trang-1" id="vDHuD0cKvWmfGSIgkUOl">
    <mxGraphModel dx="436" dy="600" grid="1" gridSize="10" guides="1" tooltips="1" connect="1" arrows="1" fold="1" page="1" pageScale="1" pageWidth="827" pageHeight="1169" math="0" shadow="0">
      <root>
        <mxCell id="0" />
        <mxCell id="1" parent="0" />
        <mxCell id="-E_i5BWWOykjIE7jNlYg-1" value="0" style="ellipse;whiteSpace=wrap;html=1;aspect=fixed;" vertex="1" parent="1">
          <mxGeometry x="130" y="60" width="80" height="80" as="geometry" />
        </mxCell>
        <mxCell id="-E_i5BWWOykjIE7jNlYg-11" style="edgeStyle=orthogonalEdgeStyle;rounded=0;orthogonalLoop=1;jettySize=auto;html=1;entryX=0.5;entryY=0;entryDx=0;entryDy=0;" edge="1" parent="1" source="-E_i5BWWOykjIE7jNlYg-2" target="-E_i5BWWOykjIE7jNlYg-3">
          <mxGeometry relative="1" as="geometry" />
        </mxCell>
        <mxCell id="-E_i5BWWOykjIE7jNlYg-2" value="1" style="ellipse;whiteSpace=wrap;html=1;aspect=fixed;" vertex="1" parent="1">
          <mxGeometry x="130" y="170" width="80" height="80" as="geometry" />
        </mxCell>
        <mxCell id="-E_i5BWWOykjIE7jNlYg-3" value="2" style="ellipse;whiteSpace=wrap;html=1;aspect=fixed;" vertex="1" parent="1">
          <mxGeometry x="130" y="290" width="80" height="80" as="geometry" />
        </mxCell>
        <mxCell id="-E_i5BWWOykjIE7jNlYg-13" style="edgeStyle=orthogonalEdgeStyle;rounded=0;orthogonalLoop=1;jettySize=auto;html=1;entryX=0.5;entryY=0;entryDx=0;entryDy=0;" edge="1" parent="1" source="-E_i5BWWOykjIE7jNlYg-4" target="-E_i5BWWOykjIE7jNlYg-5">
          <mxGeometry relative="1" as="geometry" />
        </mxCell>
        <mxCell id="-E_i5BWWOykjIE7jNlYg-4" value="2" style="ellipse;whiteSpace=wrap;html=1;aspect=fixed;" vertex="1" parent="1">
          <mxGeometry x="130" y="430" width="80" height="80" as="geometry" />
        </mxCell>
        <mxCell id="-E_i5BWWOykjIE7jNlYg-5" value="3" style="ellipse;whiteSpace=wrap;html=1;aspect=fixed;" vertex="1" parent="1">
          <mxGeometry x="130" y="570" width="80" height="80" as="geometry" />
        </mxCell>
        <mxCell id="-E_i5BWWOykjIE7jNlYg-6" value="4" style="ellipse;whiteSpace=wrap;html=1;aspect=fixed;" vertex="1" parent="1">
          <mxGeometry x="300" y="290" width="80" height="80" as="geometry" />
        </mxCell>
        <mxCell id="-E_i5BWWOykjIE7jNlYg-7" value="6" style="ellipse;whiteSpace=wrap;html=1;aspect=fixed;" vertex="1" parent="1">
          <mxGeometry x="520" y="290" width="80" height="80" as="geometry" />
        </mxCell>
        <mxCell id="-E_i5BWWOykjIE7jNlYg-8" value="5" style="ellipse;whiteSpace=wrap;html=1;aspect=fixed;" vertex="1" parent="1">
          <mxGeometry x="414" y="170" width="80" height="80" as="geometry" />
        </mxCell>
        <mxCell id="-E_i5BWWOykjIE7jNlYg-9" value="" style="endArrow=classic;html=1;rounded=0;entryX=0.5;entryY=0;entryDx=0;entryDy=0;" edge="1" parent="1" target="-E_i5BWWOykjIE7jNlYg-1">
          <mxGeometry width="50" height="50" relative="1" as="geometry">
            <mxPoint x="170" y="20" as="sourcePoint" />
            <mxPoint x="440" y="90" as="targetPoint" />
            <Array as="points">
              <mxPoint x="170" y="50" />
            </Array>
          </mxGeometry>
        </mxCell>
        <mxCell id="-E_i5BWWOykjIE7jNlYg-10" value="" style="endArrow=classic;html=1;rounded=0;entryX=0.5;entryY=0;entryDx=0;entryDy=0;exitX=0.5;exitY=1;exitDx=0;exitDy=0;" edge="1" parent="1" source="-E_i5BWWOykjIE7jNlYg-1" target="-E_i5BWWOykjIE7jNlYg-2">
          <mxGeometry width="50" height="50" relative="1" as="geometry">
            <mxPoint x="390" y="140" as="sourcePoint" />
            <mxPoint x="440" y="90" as="targetPoint" />
          </mxGeometry>
        </mxCell>
        <mxCell id="-E_i5BWWOykjIE7jNlYg-12" style="edgeStyle=orthogonalEdgeStyle;rounded=0;orthogonalLoop=1;jettySize=auto;html=1;entryX=0.5;entryY=0.03;entryDx=0;entryDy=0;entryPerimeter=0;" edge="1" parent="1" source="-E_i5BWWOykjIE7jNlYg-3" target="-E_i5BWWOykjIE7jNlYg-4">
          <mxGeometry relative="1" as="geometry" />
        </mxCell>
        <mxCell id="-E_i5BWWOykjIE7jNlYg-14" value="" style="endArrow=classic;html=1;rounded=0;exitX=0;exitY=0.5;exitDx=0;exitDy=0;entryX=0;entryY=0.5;entryDx=0;entryDy=0;" edge="1" parent="1" source="-E_i5BWWOykjIE7jNlYg-5" target="-E_i5BWWOykjIE7jNlYg-3">
          <mxGeometry width="50" height="50" relative="1" as="geometry">
            <mxPoint x="390" y="540" as="sourcePoint" />
            <mxPoint x="440" y="490" as="targetPoint" />
            <Array as="points">
              <mxPoint x="40" y="450" />
            </Array>
          </mxGeometry>
        </mxCell>
        <mxCell id="-E_i5BWWOykjIE7jNlYg-15" value="" style="endArrow=classic;html=1;rounded=0;exitX=1;exitY=0.5;exitDx=0;exitDy=0;entryX=0;entryY=0.5;entryDx=0;entryDy=0;" edge="1" parent="1" source="-E_i5BWWOykjIE7jNlYg-3" target="-E_i5BWWOykjIE7jNlYg-6">
          <mxGeometry width="50" height="50" relative="1" as="geometry">
            <mxPoint x="390" y="340" as="sourcePoint" />
            <mxPoint x="440" y="290" as="targetPoint" />
          </mxGeometry>
        </mxCell>
        <mxCell id="-E_i5BWWOykjIE7jNlYg-16" value="" style="endArrow=classic;html=1;rounded=0;exitX=1;exitY=0.5;exitDx=0;exitDy=0;entryX=0;entryY=0.5;entryDx=0;entryDy=0;" edge="1" parent="1" source="-E_i5BWWOykjIE7jNlYg-6" target="-E_i5BWWOykjIE7jNlYg-7">
          <mxGeometry width="50" height="50" relative="1" as="geometry">
            <mxPoint x="390" y="340" as="sourcePoint" />
            <mxPoint x="440" y="290" as="targetPoint" />
          </mxGeometry>
        </mxCell>
        <mxCell id="-E_i5BWWOykjIE7jNlYg-17" value="" style="endArrow=classic;html=1;rounded=0;exitX=0.5;exitY=0;exitDx=0;exitDy=0;entryX=0;entryY=0.5;entryDx=0;entryDy=0;" edge="1" parent="1" source="-E_i5BWWOykjIE7jNlYg-6" target="-E_i5BWWOykjIE7jNlYg-8">
          <mxGeometry width="50" height="50" relative="1" as="geometry">
            <mxPoint x="390" y="340" as="sourcePoint" />
            <mxPoint x="440" y="290" as="targetPoint" />
          </mxGeometry>
        </mxCell>
        <mxCell id="-E_i5BWWOykjIE7jNlYg-18" value="" style="endArrow=classic;html=1;rounded=0;entryX=0.5;entryY=0;entryDx=0;entryDy=0;exitX=1;exitY=0.5;exitDx=0;exitDy=0;" edge="1" parent="1" source="-E_i5BWWOykjIE7jNlYg-8" target="-E_i5BWWOykjIE7jNlYg-7">
          <mxGeometry width="50" height="50" relative="1" as="geometry">
            <mxPoint x="390" y="340" as="sourcePoint" />
            <mxPoint x="440" y="290" as="targetPoint" />
          </mxGeometry>
        </mxCell>
        <mxCell id="-E_i5BWWOykjIE7jNlYg-19" value="Prime(long n)" style="text;whiteSpace=wrap;html=1;" vertex="1" parent="1">
          <mxGeometry x="210" y="80" width="110" height="40" as="geometry" />
        </mxCell>
        <mxCell id="-E_i5BWWOykjIE7jNlYg-20" value="long k=2;&#xa; int kq=0;" style="text;whiteSpace=wrap;html=1;" vertex="1" parent="1">
          <mxGeometry x="220" y="180" width="80" height="50" as="geometry" />
        </mxCell>
        <mxCell id="-E_i5BWWOykjIE7jNlYg-21" value="while" style="text;whiteSpace=wrap;html=1;" vertex="1" parent="1">
          <mxGeometry x="150" y="290" width="10" height="40" as="geometry" />
        </mxCell>
        <mxCell id="-E_i5BWWOykjIE7jNlYg-22" value="(n%k!=0)" style="text;whiteSpace=wrap;html=1;" vertex="1" parent="1">
          <mxGeometry x="180" y="380" width="80" height="40" as="geometry" />
        </mxCell>
        <mxCell id="-E_i5BWWOykjIE7jNlYg-23" value="k*k&amp;lt;=n" style="text;whiteSpace=wrap;html=1;" vertex="1" parent="1">
          <mxGeometry x="190" y="530" width="70" height="40" as="geometry" />
        </mxCell>
        <mxCell id="-E_i5BWWOykjIE7jNlYg-24" value="k=k+1" style="text;whiteSpace=wrap;html=1;" vertex="1" parent="1">
          <mxGeometry x="220" y="590" width="70" height="40" as="geometry" />
        </mxCell>
        <mxCell id="-E_i5BWWOykjIE7jNlYg-25" value="" style="endArrow=classic;html=1;rounded=0;exitX=1;exitY=0.5;exitDx=0;exitDy=0;" edge="1" parent="1" source="-E_i5BWWOykjIE7jNlYg-4" target="-E_i5BWWOykjIE7jNlYg-6">
          <mxGeometry width="50" height="50" relative="1" as="geometry">
            <mxPoint x="120" y="440" as="sourcePoint" />
            <mxPoint x="170" y="390" as="targetPoint" />
          </mxGeometry>
        </mxCell>
        <mxCell id="-E_i5BWWOykjIE7jNlYg-26" value="&lt;span style=&quot;color: rgb(0, 0, 0); font-family: Helvetica; font-size: 12px; font-style: normal; font-variant-ligatures: normal; font-variant-caps: normal; font-weight: 400; letter-spacing: normal; orphans: 2; text-align: left; text-indent: 0px; text-transform: none; widows: 2; word-spacing: 0px; -webkit-text-stroke-width: 0px; white-space: normal; background-color: rgb(236, 236, 236); text-decoration-thickness: initial; text-decoration-style: initial; text-decoration-color: initial; float: none; display: inline !important;&quot;&gt;k*k&amp;gt;n&lt;/span&gt;" style="text;whiteSpace=wrap;html=1;" vertex="1" parent="1">
          <mxGeometry x="260" y="430" width="70" height="40" as="geometry" />
        </mxCell>
        <mxCell id="-E_i5BWWOykjIE7jNlYg-27" value="&lt;span style=&quot;color: rgb(0, 0, 0); font-family: Helvetica; font-size: 12px; font-style: normal; font-variant-ligatures: normal; font-variant-caps: normal; font-weight: 400; letter-spacing: normal; orphans: 2; text-align: left; text-indent: 0px; text-transform: none; widows: 2; word-spacing: 0px; -webkit-text-stroke-width: 0px; white-space: normal; background-color: rgb(236, 236, 236); text-decoration-thickness: initial; text-decoration-style: initial; text-decoration-color: initial; float: none; display: inline !important;&quot;&gt;(n%k==0)&lt;/span&gt;" style="text;whiteSpace=wrap;html=1;" vertex="1" parent="1">
          <mxGeometry x="230" y="300" width="80" height="40" as="geometry" />
        </mxCell>
        <mxCell id="-E_i5BWWOykjIE7jNlYg-28" value="k*k&amp;gt;n" style="text;whiteSpace=wrap;html=1;" vertex="1" parent="1">
          <mxGeometry x="340" y="230" width="60" height="40" as="geometry" />
        </mxCell>
        <mxCell id="-E_i5BWWOykjIE7jNlYg-29" value="if" style="text;whiteSpace=wrap;html=1;" vertex="1" parent="1">
          <mxGeometry x="330" y="310" width="40" height="40" as="geometry" />
        </mxCell>
        <mxCell id="-E_i5BWWOykjIE7jNlYg-30" value="kq=1" style="text;whiteSpace=wrap;html=1;" vertex="1" parent="1">
          <mxGeometry x="424" y="140" width="60" height="20" as="geometry" />
        </mxCell>
        <mxCell id="-E_i5BWWOykjIE7jNlYg-31" value="k*k&amp;lt;=n" style="text;whiteSpace=wrap;html=1;" vertex="1" parent="1">
          <mxGeometry x="434" y="340" width="60" height="40" as="geometry" />
        </mxCell>
        <mxCell id="-E_i5BWWOykjIE7jNlYg-32" value="return kq" style="text;whiteSpace=wrap;html=1;" vertex="1" parent="1">
          <mxGeometry x="530" y="370" width="80" height="40" as="geometry" />
        </mxCell>
      </root>
    </mxGraphModel>
  </diagram>
</mxfile>
